# MagicaVoxel @ Ephtracy

# group
o 

# material
mtllib arm2.mtl
usemtl palette

# normals
vn -1 0 0
vn 1 0 0
vn 0 0 1
vn 0 0 -1
vn 0 -1 0
vn 0 1 0

# texcoords
vt 0.0449219 0.5
vt 0.0605469 0.5
vt 0.0917969 0.5
vt 0.185547 0.5
vt 0.537109 0.5
vt 0.955078 0.5
vt 0.962891 0.5
vt 0.978516 0.5
vt 0.986328 0.5
vt 0.990234 0.5
vt 0.994141 0.5

# verts
v -1 0 1.6
v -1 0 1.1
v -1 0 1
v -1 0 0.9
v -1 0 0.8
v -1 0 -0.6
v -1 0 -0.7
v -1 0 -0.8
v -1 0 -0.9
v -1 0 -1.3
v -1 0.1 1.1
v -1 0.1 1
v -1 0.1 0.9
v -1 0.1 0.8
v -1 0.1 -0.6
v -1 0.1 -0.7
v -1 0.1 -0.8
v -1 0.1 -0.9
v -1 0.2 1.1
v -1 0.2 1
v -1 0.2 0.9
v -1 0.2 0.8
v -1 0.2 -0.6
v -1 0.2 -0.7
v -1 0.2 -0.8
v -1 0.2 -0.9
v -1 0.3 1.1
v -1 0.3 1
v -1 0.3 0.9
v -1 0.3 0.8
v -1 0.3 -0.6
v -1 0.3 -0.7
v -1 0.3 -0.8
v -1 0.3 -0.9
v -1 1 1.6
v -1 1 -1.3
v -0.5 0.3 0.9
v -0.5 0.3 0.6
v -0.5 0.3 -0.6
v -0.5 0.6 0.9
v -0.5 0.6 0.6
v -0.5 0.6 -0.2
v -0.5 1.1 -0.2
v -0.5 1.1 -0.6
v -0.5 1.7 -0.2
v -0.5 1.7 -0.6
v -0.4 2.1 -0.1
v -0.4 2.1 -0.7
v -0.4 2.5 -0.1
v -0.4 2.5 -0.7
v -0.3 1.8 -0.2
v -0.3 1.8 -0.6
v -0.3 2 -0.3
v -0.3 2 -0.6
v -0.3 2.1 -0.2
v -0.3 2.1 -0.3
v -0.3 2.1 -0.6
v -0.3 2.5 -0.2
v -0.3 2.5 -0.6
v -0.3 2.6 -0.2
v -0.3 2.6 -0.6
v -0.2 2.3 0
v -0.2 2.3 -0.1
v -0.2 2.5 0
v -0.2 2.5 -0.1
v -0.2 2.6 -0.3
v -0.2 2.6 -0.5
v -0.2 2.7 -0.3
v -0.2 2.7 -0.5
v -0.0999999 1.7 -0.3
v -0.0999999 1.7 -0.5
v -0.0999999 1.8 -0.3
v -0.0999999 1.8 -0.5
v -0.0999999 2.2 0
v -0.0999999 2.2 -0.1
v -0.0999999 2.3 0
v -0.0999999 2.3 -0.1
v -0.0999999 2.5 0
v -0.0999999 2.5 -0.1
v -0.0999999 2.5 -0.2
v -0.0999999 2.6 0
v -0.0999999 2.6 -0.1
v -0.0999999 2.6 -0.2
v 0.2 0.3 0.9
v 0.2 0.3 0.6
v 0.2 0.3 -0.2
v 0.2 0.6 0.9
v 0.2 0.6 0.6
v 0.2 0.6 -0.2
v 0.8 0.3 1.4
v 0.8 0.3 -1.1
v 0.8 1 1.4
v 0.8 1 -1.1
v -0.8 0.3 1.4
v -0.8 0.3 -1.1
v -0.8 1 1.4
v -0.8 1 -1.1
v -0.2 0.3 0.9
v -0.2 0.3 0.6
v -0.2 0.3 -0.2
v -0.2 0.6 0.9
v -0.2 0.6 0.6
v -0.2 0.6 -0.2
v 0.1 1.7 -0.3
v 0.1 1.7 -0.5
v 0.1 1.8 -0.3
v 0.1 1.8 -0.5
v 0.1 2.2 0
v 0.1 2.2 -0.1
v 0.1 2.3 0
v 0.1 2.3 -0.1
v 0.1 2.5 0
v 0.1 2.5 -0.1
v 0.1 2.5 -0.2
v 0.1 2.6 0
v 0.1 2.6 -0.1
v 0.1 2.6 -0.2
v 0.2 2.3 0
v 0.2 2.3 -0.1
v 0.2 2.5 0
v 0.2 2.5 -0.1
v 0.2 2.6 -0.3
v 0.2 2.6 -0.5
v 0.2 2.7 -0.3
v 0.2 2.7 -0.5
v 0.3 1.8 -0.2
v 0.3 1.8 -0.6
v 0.3 2 -0.3
v 0.3 2 -0.6
v 0.3 2.1 -0.2
v 0.3 2.1 -0.3
v 0.3 2.1 -0.6
v 0.3 2.5 -0.2
v 0.3 2.5 -0.6
v 0.3 2.6 -0.2
v 0.3 2.6 -0.6
v 0.4 2.1 -0.1
v 0.4 2.1 -0.7
v 0.4 2.5 -0.1
v 0.4 2.5 -0.7
v 0.5 0.3 0.9
v 0.5 0.3 0.6
v 0.5 0.3 -0.6
v 0.5 0.6 0.9
v 0.5 0.6 0.6
v 0.5 0.6 -0.2
v 0.5 0.6 -0.3
v 0.5 0.6 -0.5
v 0.5 0.9 -0.3
v 0.5 0.9 -0.5
v 0.5 1.1 -0.2
v 0.5 1.1 -0.3
v 0.5 1.1 -0.5
v 0.5 1.1 -0.6
v 0.5 1.6 -0.3
v 0.5 1.6 -0.5
v 0.5 1.7 -0.2
v 0.5 1.7 -0.6
v 0.7 0.6 -0.3
v 0.7 0.6 -0.5
v 0.7 0.9 -0.3
v 0.7 0.9 -0.5
v 0.7 1.6 -0.3
v 0.7 1.6 -0.5
v 1 0 1.6
v 1 0 1.2
v 1 0 1.1
v 1 0 1
v 1 0 0.9
v 1 0 -0.5
v 1 0 -0.6
v 1 0 -0.7
v 1 0 -0.8
v 1 0 -1.3
v 1 0.1 1.2
v 1 0.1 1.1
v 1 0.1 1
v 1 0.1 0.9
v 1 0.1 -0.5
v 1 0.1 -0.6
v 1 0.1 -0.7
v 1 0.1 -0.8
v 1 0.2 1.2
v 1 0.2 1.1
v 1 0.2 1
v 1 0.2 0.9
v 1 0.2 -0.5
v 1 0.2 -0.6
v 1 0.2 -0.7
v 1 0.2 -0.8
v 1 0.3 1.2
v 1 0.3 1.1
v 1 0.3 1
v 1 0.3 0.9
v 1 0.3 -0.5
v 1 0.3 -0.6
v 1 0.3 -0.7
v 1 0.3 -0.8
v 1 1 1.6
v 1 1 -1.3
v -1 0 1.6
v -1 1 1.6
v 1 0 1.6
v 1 1 1.6
v -0.5 0.3 0.9
v -0.5 0.6 0.9
v -0.2 0.3 0.9
v -0.2 0.6 0.9
v 0.2 0.3 0.9
v 0.2 0.6 0.9
v 0.5 0.3 0.9
v 0.5 0.6 0.9
v -0.2 2.3 0
v -0.2 2.5 0
v -0.0999999 2.2 0
v -0.0999999 2.3 0
v -0.0999999 2.5 0
v -0.0999999 2.6 0
v 0.1 2.2 0
v 0.1 2.3 0
v 0.1 2.5 0
v 0.1 2.6 0
v 0.2 2.3 0
v 0.2 2.5 0
v -0.4 2.1 -0.1
v -0.4 2.5 -0.1
v -0.2 2.3 -0.1
v -0.2 2.5 -0.1
v -0.0999999 2.2 -0.1
v -0.0999999 2.3 -0.1
v 0.1 2.2 -0.1
v 0.1 2.3 -0.1
v 0.2 2.3 -0.1
v 0.2 2.5 -0.1
v 0.4 2.1 -0.1
v 0.4 2.5 -0.1
v -0.5 0.6 -0.2
v -0.5 1.1 -0.2
v -0.5 1.7 -0.2
v -0.4 1 -0.2
v -0.4 1.1 -0.2
v -0.4 1.7 -0.2
v -0.3 1 -0.2
v -0.3 1.1 -0.2
v -0.3 1.7 -0.2
v -0.3 1.8 -0.2
v -0.3 2.1 -0.2
v -0.3 2.5 -0.2
v -0.3 2.6 -0.2
v -0.2 0.3 -0.2
v -0.2 0.6 -0.2
v -0.2 2 -0.2
v -0.2 2.1 -0.2
v -0.0999999 2 -0.2
v -0.0999999 2.1 -0.2
v -0.0999999 2.5 -0.2
v -0.0999999 2.6 -0.2
v 0.1 2 -0.2
v 0.1 2.1 -0.2
v 0.1 2.5 -0.2
v 0.1 2.6 -0.2
v 0.2 0.3 -0.2
v 0.2 0.6 -0.2
v 0.2 2 -0.2
v 0.2 2.1 -0.2
v 0.3 1 -0.2
v 0.3 1.1 -0.2
v 0.3 1.7 -0.2
v 0.3 1.8 -0.2
v 0.3 2.1 -0.2
v 0.3 2.5 -0.2
v 0.3 2.6 -0.2
v 0.4 1 -0.2
v 0.4 1.1 -0.2
v 0.4 1.7 -0.2
v 0.5 0.6 -0.2
v 0.5 1.1 -0.2
v 0.5 1.7 -0.2
v -0.2 2.6 -0.3
v -0.2 2.7 -0.3
v -0.0999999 1.7 -0.3
v -0.0999999 1.8 -0.3
v 0.1 1.7 -0.3
v 0.1 1.8 -0.3
v 0.2 2.6 -0.3
v 0.2 2.7 -0.3
v 0.5 0.6 -0.3
v 0.5 0.9 -0.3
v 0.5 1.1 -0.3
v 0.5 1.6 -0.3
v 0.7 0.6 -0.3
v 0.7 0.9 -0.3
v 0.7 1.6 -0.3
v -0.8 0.3 -1.1
v -0.8 1 -1.1
v 0.8 0.3 -1.1
v 0.8 1 -1.1
v -0.8 0.3 1.4
v -0.8 1 1.4
v 0.8 0.3 1.4
v 0.8 1 1.4
v -0.2 2.6 -0.5
v -0.2 2.7 -0.5
v -0.0999999 1.7 -0.5
v -0.0999999 1.8 -0.5
v 0.1 1.7 -0.5
v 0.1 1.8 -0.5
v 0.2 2.6 -0.5
v 0.2 2.7 -0.5
v 0.5 0.6 -0.5
v 0.5 0.9 -0.5
v 0.5 1.1 -0.5
v 0.5 1.6 -0.5
v 0.7 0.6 -0.5
v 0.7 0.9 -0.5
v 0.7 1.6 -0.5
v -0.5 0.3 -0.6
v -0.5 1.1 -0.6
v -0.5 1.7 -0.6
v -0.4 1 -0.6
v -0.4 1.1 -0.6
v -0.4 1.7 -0.6
v -0.3 1 -0.6
v -0.3 1.1 -0.6
v -0.3 1.7 -0.6
v -0.3 1.8 -0.6
v -0.3 2 -0.6
v -0.3 2.1 -0.6
v -0.3 2.5 -0.6
v -0.3 2.6 -0.6
v 0.3 1 -0.6
v 0.3 1.1 -0.6
v 0.3 1.7 -0.6
v 0.3 1.8 -0.6
v 0.3 2 -0.6
v 0.3 2.1 -0.6
v 0.3 2.5 -0.6
v 0.3 2.6 -0.6
v 0.4 1 -0.6
v 0.4 1.1 -0.6
v 0.4 1.7 -0.6
v 0.5 0.3 -0.6
v 0.5 1.1 -0.6
v 0.5 1.7 -0.6
v -0.4 2.1 -0.7
v -0.4 2.5 -0.7
v 0.4 2.1 -0.7
v 0.4 2.5 -0.7
v -1 0 -1.3
v -1 1 -1.3
v 1 0 -1.3
v 1 1 -1.3
v -1 0 1.6
v 1 0 1.6
v 0.9 0 1.2
v 1 0 1.2
v -1 0 1.1
v -0.9 0 1.1
v 0.9 0 1.1
v 1 0 1.1
v -1 0 1
v -0.9 0 1
v 0.9 0 1
v 1 0 1
v -1 0 0.9
v -0.9 0 0.9
v 0.9 0 0.9
v 1 0 0.9
v -1 0 0.8
v -0.9 0 0.8
v 0.9 0 -0.5
v 1 0 -0.5
v -1 0 -0.6
v -0.9 0 -0.6
v 0.9 0 -0.6
v 1 0 -0.6
v -1 0 -0.7
v -0.9 0 -0.7
v 0.9 0 -0.7
v 1 0 -0.7
v -1 0 -0.8
v -0.9 0 -0.8
v 0.9 0 -0.8
v 1 0 -0.8
v -1 0 -0.9
v -0.9 0 -0.9
v -1 0 -1.3
v 1 0 -1.3
v 0.5 0.6 -0.3
v 0.7 0.6 -0.3
v 0.5 0.6 -0.5
v 0.7 0.6 -0.5
v -0.3 1.8 -0.2
v 0.3 1.8 -0.2
v -0.0999999 1.8 -0.3
v 0.1 1.8 -0.3
v -0.0999999 1.8 -0.5
v 0.1 1.8 -0.5
v -0.3 1.8 -0.6
v 0.3 1.8 -0.6
v -0.4 2.1 -0.1
v 0.4 2.1 -0.1
v -0.3 2.1 -0.2
v -0.2 2.1 -0.2
v -0.0999999 2.1 -0.2
v 0.1 2.1 -0.2
v 0.2 2.1 -0.2
v 0.3 2.1 -0.2
v -0.3 2.1 -0.3
v 0.3 2.1 -0.3
v -0.3 2.1 -0.6
v 0.3 2.1 -0.6
v -0.4 2.1 -0.7
v 0.4 2.1 -0.7
v -0.0999999 2.2 0
v 0.1 2.2 0
v -0.0999999 2.2 -0.1
v 0.1 2.2 -0.1
v -0.2 2.3 0
v -0.0999999 2.3 0
v 0.1 2.3 0
v 0.2 2.3 0
v -0.2 2.3 -0.1
v -0.0999999 2.3 -0.1
v 0.1 2.3 -0.1
v 0.2 2.3 -0.1
v -0.8 0.3 1.4
v 0.8 0.3 1.4
v -0.5 0.3 0.9
v -0.2 0.3 0.9
v 0.2 0.3 0.9
v 0.5 0.3 0.9
v -0.5 0.3 0.6
v -0.2 0.3 0.6
v 0.2 0.3 0.6
v 0.5 0.3 0.6
v -0.2 0.3 -0.2
v 0.2 0.3 -0.2
v -0.5 0.3 -0.6
v 0.5 0.3 -0.6
v -0.8 0.3 -1.1
v 0.8 0.3 -1.1
v -0.5 0.6 0.9
v -0.2 0.6 0.9
v 0.2 0.6 0.9
v 0.5 0.6 0.9
v -0.5 0.6 0.6
v -0.2 0.6 0.6
v 0.2 0.6 0.6
v 0.5 0.6 0.6
v -0.5 0.6 -0.2
v -0.2 0.6 -0.2
v 0.2 0.6 -0.2
v 0.5 0.6 -0.2
v -1 1 1.6
v 1 1 1.6
v -0.8 1 1.4
v 0.8 1 1.4
v -0.8 1 -1.1
v 0.8 1 -1.1
v -1 1 -1.3
v 1 1 -1.3
v 0.5 1.6 -0.3
v 0.7 1.6 -0.3
v 0.5 1.6 -0.5
v 0.7 1.6 -0.5
v -0.5 1.7 -0.2
v -0.4 1.7 -0.2
v -0.3 1.7 -0.2
v 0.3 1.7 -0.2
v 0.4 1.7 -0.2
v 0.5 1.7 -0.2
v -0.0999999 1.7 -0.3
v 0.1 1.7 -0.3
v -0.0999999 1.7 -0.5
v 0.1 1.7 -0.5
v -0.5 1.7 -0.6
v -0.4 1.7 -0.6
v -0.3 1.7 -0.6
v 0.3 1.7 -0.6
v 0.4 1.7 -0.6
v 0.5 1.7 -0.6
v -0.2 2.5 0
v -0.0999999 2.5 0
v 0.1 2.5 0
v 0.2 2.5 0
v -0.4 2.5 -0.1
v -0.2 2.5 -0.1
v -0.0999999 2.5 -0.1
v 0.1 2.5 -0.1
v 0.2 2.5 -0.1
v 0.4 2.5 -0.1
v -0.3 2.5 -0.2
v -0.0999999 2.5 -0.2
v 0.1 2.5 -0.2
v 0.3 2.5 -0.2
v -0.3 2.5 -0.6
v 0.3 2.5 -0.6
v -0.4 2.5 -0.7
v 0.4 2.5 -0.7
v -0.0999999 2.6 0
v 0.1 2.6 0
v -0.0999999 2.6 -0.1
v 0.1 2.6 -0.1
v -0.3 2.6 -0.2
v -0.0999999 2.6 -0.2
v 0.1 2.6 -0.2
v 0.3 2.6 -0.2
v -0.2 2.6 -0.3
v 0.2 2.6 -0.3
v -0.2 2.6 -0.5
v 0.2 2.6 -0.5
v -0.3 2.6 -0.6
v 0.3 2.6 -0.6
v -0.2 2.7 -0.3
v 0.2 2.7 -0.3
v -0.2 2.7 -0.5
v 0.2 2.7 -0.5

# faces
f 11/8/1 2/8/1 1/8/1
f 11/9/1 3/9/1 2/9/1
f 12/10/1 4/10/1 3/10/1
f 12/9/1 3/9/1 11/9/1
f 13/9/1 5/9/1 4/9/1
f 13/10/1 4/10/1 12/10/1
f 14/8/1 6/8/1 5/8/1
f 14/9/1 5/9/1 13/9/1
f 15/9/1 7/9/1 6/9/1
f 15/8/1 6/8/1 14/8/1
f 16/10/1 8/10/1 7/10/1
f 16/9/1 7/9/1 15/9/1
f 17/9/1 9/9/1 8/9/1
f 17/10/1 8/10/1 16/10/1
f 18/8/1 10/8/1 9/8/1
f 18/9/1 9/9/1 17/9/1
f 19/8/1 11/8/1 1/8/1
f 19/10/1 12/10/1 11/10/1
f 19/10/1 13/10/1 12/10/1
f 19/10/1 14/10/1 13/10/1
f 20/10/1 14/10/1 19/10/1
f 21/10/1 14/10/1 20/10/1
f 22/8/1 15/8/1 14/8/1
f 22/10/1 14/10/1 21/10/1
f 23/10/1 17/10/1 16/10/1
f 23/8/1 15/8/1 22/8/1
f 23/10/1 16/10/1 15/10/1
f 23/10/1 18/10/1 17/10/1
f 24/10/1 18/10/1 23/10/1
f 25/10/1 18/10/1 24/10/1
f 26/8/1 10/8/1 18/8/1
f 26/10/1 18/10/1 25/10/1
f 27/9/1 20/9/1 19/9/1
f 27/8/1 19/8/1 1/8/1
f 28/10/1 21/10/1 20/10/1
f 28/9/1 20/9/1 27/9/1
f 29/9/1 22/9/1 21/9/1
f 29/10/1 21/10/1 28/10/1
f 30/8/1 23/8/1 22/8/1
f 30/9/1 22/9/1 29/9/1
f 31/9/1 24/9/1 23/9/1
f 31/8/1 23/8/1 30/8/1
f 32/10/1 25/10/1 24/10/1
f 32/9/1 24/9/1 31/9/1
f 33/9/1 26/9/1 25/9/1
f 33/10/1 25/10/1 32/10/1
f 34/8/1 10/8/1 26/8/1
f 34/9/1 26/9/1 33/9/1
f 35/8/1 28/8/1 27/8/1
f 35/8/1 33/8/1 32/8/1
f 35/8/1 34/8/1 33/8/1
f 35/8/1 30/8/1 29/8/1
f 35/8/1 29/8/1 28/8/1
f 35/8/1 27/8/1 1/8/1
f 35/8/1 32/8/1 31/8/1
f 35/8/1 31/8/1 30/8/1
f 36/8/1 10/8/1 34/8/1
f 36/8/1 34/8/1 35/8/1
f 40/2/1 38/2/1 37/2/1
f 41/5/1 39/5/1 38/5/1
f 41/2/1 38/2/1 40/2/1
f 42/5/1 39/5/1 41/5/1
f 43/5/1 39/5/1 42/5/1
f 44/5/1 39/5/1 43/5/1
f 45/3/1 44/3/1 43/3/1
f 46/3/1 44/3/1 45/3/1
f 49/7/1 48/7/1 47/7/1
f 50/7/1 48/7/1 49/7/1
f 53/2/1 52/2/1 51/2/1
f 54/2/1 52/2/1 53/2/1
f 55/2/1 53/2/1 51/2/1
f 56/6/1 54/6/1 53/6/1
f 56/2/1 53/2/1 55/2/1
f 57/6/1 54/6/1 56/6/1
f 60/7/1 59/7/1 58/7/1
f 61/7/1 59/7/1 60/7/1
f 64/6/1 63/6/1 62/6/1
f 65/6/1 63/6/1 64/6/1
f 68/7/1 67/7/1 66/7/1
f 69/7/1 67/7/1 68/7/1
f 72/2/1 71/2/1 70/2/1
f 73/2/1 71/2/1 72/2/1
f 76/6/1 75/6/1 74/6/1
f 77/6/1 75/6/1 76/6/1
f 81/6/1 79/6/1 78/6/1
f 82/7/1 80/7/1 79/7/1
f 82/6/1 79/6/1 81/6/1
f 83/7/1 80/7/1 82/7/1
f 87/2/1 85/2/1 84/2/1
f 88/5/1 86/5/1 85/5/1
f 88/2/1 85/2/1 87/2/1
f 89/5/1 86/5/1 88/5/1
f 92/8/1 91/8/1 90/8/1
f 93/8/1 91/8/1 92/8/1
f 94/8/2 95/8/2 96/8/2
f 96/8/2 95/8/2 97/8/2
f 98/2/2 99/2/2 101/2/2
f 99/5/2 100/5/2 102/5/2
f 101/2/2 99/2/2 102/2/2
f 102/5/2 100/5/2 103/5/2
f 104/2/2 105/2/2 106/2/2
f 106/2/2 105/2/2 107/2/2
f 108/6/2 109/6/2 110/6/2
f 110/6/2 109/6/2 111/6/2
f 112/6/2 113/6/2 115/6/2
f 113/7/2 114/7/2 116/7/2
f 115/6/2 113/6/2 116/6/2
f 116/7/2 114/7/2 117/7/2
f 118/6/2 119/6/2 120/6/2
f 120/6/2 119/6/2 121/6/2
f 122/7/2 123/7/2 124/7/2
f 124/7/2 123/7/2 125/7/2
f 126/2/2 127/2/2 128/2/2
f 128/2/2 127/2/2 129/2/2
f 126/2/2 128/2/2 130/2/2
f 128/6/2 129/6/2 131/6/2
f 130/2/2 128/2/2 131/2/2
f 131/6/2 129/6/2 132/6/2
f 133/7/2 134/7/2 135/7/2
f 135/7/2 134/7/2 136/7/2
f 137/7/2 138/7/2 139/7/2
f 139/7/2 138/7/2 140/7/2
f 141/2/2 142/2/2 144/2/2
f 142/5/2 143/5/2 145/5/2
f 144/2/2 142/2/2 145/2/2
f 145/5/2 143/5/2 146/5/2
f 146/5/2 143/5/2 147/5/2
f 147/5/2 143/5/2 148/5/2
f 146/5/2 147/5/2 149/5/2
f 148/5/2 143/5/2 150/5/2
f 146/5/2 149/5/2 151/5/2
f 151/5/2 149/5/2 152/5/2
f 150/5/2 143/5/2 153/5/2
f 153/5/2 143/5/2 154/5/2
f 151/3/2 152/3/2 155/3/2
f 153/3/2 154/3/2 156/3/2
f 151/3/2 155/3/2 157/3/2
f 155/3/2 156/3/2 157/3/2
f 156/3/2 154/3/2 158/3/2
f 157/3/2 156/3/2 158/3/2
f 159/2/2 160/2/2 161/2/2
f 161/2/2 160/2/2 162/2/2
f 161/3/2 162/3/2 163/3/2
f 163/3/2 162/3/2 164/3/2
f 165/8/2 166/8/2 175/8/2
f 166/9/2 167/9/2 175/9/2
f 167/10/2 168/10/2 176/10/2
f 175/9/2 167/9/2 176/9/2
f 168/9/2 169/9/2 177/9/2
f 176/10/2 168/10/2 177/10/2
f 169/8/2 170/8/2 178/8/2
f 177/9/2 169/9/2 178/9/2
f 170/9/2 171/9/2 179/9/2
f 178/8/2 170/8/2 179/8/2
f 171/10/2 172/10/2 180/10/2
f 179/9/2 171/9/2 180/9/2
f 172/9/2 173/9/2 181/9/2
f 180/10/2 172/10/2 181/10/2
f 173/8/2 174/8/2 182/8/2
f 181/9/2 173/9/2 182/9/2
f 165/8/2 175/8/2 183/8/2
f 175/10/2 176/10/2 183/10/2
f 176/10/2 177/10/2 183/10/2
f 177/10/2 178/10/2 183/10/2
f 183/10/2 178/10/2 184/10/2
f 184/10/2 178/10/2 185/10/2
f 178/8/2 179/8/2 186/8/2
f 185/10/2 178/10/2 186/10/2
f 180/10/2 181/10/2 187/10/2
f 186/8/2 179/8/2 187/8/2
f 179/10/2 180/10/2 187/10/2
f 181/10/2 182/10/2 187/10/2
f 187/10/2 182/10/2 188/10/2
f 188/10/2 182/10/2 189/10/2
f 182/8/2 174/8/2 190/8/2
f 189/10/2 182/10/2 190/10/2
f 183/9/2 184/9/2 191/9/2
f 165/8/2 183/8/2 191/8/2
f 184/10/2 185/10/2 192/10/2
f 191/9/2 184/9/2 192/9/2
f 185/9/2 186/9/2 193/9/2
f 192/10/2 185/10/2 193/10/2
f 186/8/2 187/8/2 194/8/2
f 193/9/2 186/9/2 194/9/2
f 187/9/2 188/9/2 195/9/2
f 194/8/2 187/8/2 195/8/2
f 188/10/2 189/10/2 196/10/2
f 195/9/2 188/9/2 196/9/2
f 189/9/2 190/9/2 197/9/2
f 196/10/2 189/10/2 197/10/2
f 190/8/2 174/8/2 198/8/2
f 197/9/2 190/9/2 198/9/2
f 191/8/2 192/8/2 199/8/2
f 196/8/2 197/8/2 199/8/2
f 197/8/2 198/8/2 199/8/2
f 193/8/2 194/8/2 199/8/2
f 192/8/2 193/8/2 199/8/2
f 165/8/2 191/8/2 199/8/2
f 195/8/2 196/8/2 199/8/2
f 194/8/2 195/8/2 199/8/2
f 198/8/2 174/8/2 200/8/2
f 199/8/2 198/8/2 200/8/2
f 203/8/3 202/8/3 201/8/3
f 204/8/3 202/8/3 203/8/3
f 207/2/3 206/2/3 205/2/3
f 208/2/3 206/2/3 207/2/3
f 211/2/3 210/2/3 209/2/3
f 212/2/3 210/2/3 211/2/3
f 216/6/3 214/6/3 213/6/3
f 217/6/3 214/6/3 216/6/3
f 219/6/3 216/6/3 215/6/3
f 220/4/3 217/4/3 216/4/3
f 220/6/3 216/6/3 219/6/3
f 221/6/3 218/6/3 217/6/3
f 221/4/3 217/4/3 220/4/3
f 222/6/3 218/6/3 221/6/3
f 223/6/3 221/6/3 220/6/3
f 224/6/3 221/6/3 223/6/3
f 227/7/3 226/7/3 225/7/3
f 228/7/3 226/7/3 227/7/3
f 229/7/3 227/7/3 225/7/3
f 230/7/3 227/7/3 229/7/3
f 231/7/3 229/7/3 225/7/3
f 233/7/3 232/7/3 231/7/3
f 235/7/3 233/7/3 231/7/3
f 235/7/3 234/7/3 233/7/3
f 235/7/3 231/7/3 225/7/3
f 236/7/3 234/7/3 235/7/3
f 240/5/3 238/5/3 237/5/3
f 241/3/3 239/3/3 238/3/3
f 241/5/3 238/5/3 240/5/3
f 242/3/3 239/3/3 241/3/3
f 243/5/3 240/5/3 237/5/3
f 243/1/3 241/1/3 240/1/3
f 244/5/3 242/5/3 241/5/3
f 244/1/3 241/1/3 243/1/3
f 245/5/3 242/5/3 244/5/3
f 251/5/3 243/5/3 237/5/3
f 251/5/3 244/5/3 243/5/3
f 252/2/3 247/2/3 246/2/3
f 253/2/3 247/2/3 252/2/3
f 254/2/3 252/2/3 246/2/3
f 254/11/3 253/11/3 252/11/3
f 255/11/3 253/11/3 254/11/3
f 256/7/3 249/7/3 248/7/3
f 257/7/3 249/7/3 256/7/3
f 258/2/3 255/2/3 254/2/3
f 258/2/3 254/2/3 246/2/3
f 259/2/3 255/2/3 258/2/3
f 262/5/3 251/5/3 250/5/3
f 263/5/3 244/5/3 251/5/3
f 263/5/3 251/5/3 262/5/3
f 264/2/3 258/2/3 246/2/3
f 264/11/3 259/11/3 258/11/3
f 265/11/3 259/11/3 264/11/3
f 266/5/3 244/5/3 263/5/3
f 267/3/3 245/3/3 244/3/3
f 267/5/3 244/5/3 266/5/3
f 268/3/3 245/3/3 267/3/3
f 269/2/3 265/2/3 264/2/3
f 269/2/3 264/2/3 246/2/3
f 270/2/3 265/2/3 269/2/3
f 271/7/3 261/7/3 260/7/3
f 272/7/3 261/7/3 271/7/3
f 273/5/3 266/5/3 263/5/3
f 273/1/3 267/1/3 266/1/3
f 274/5/3 268/5/3 267/5/3
f 274/1/3 267/1/3 273/1/3
f 275/5/3 268/5/3 274/5/3
f 276/5/3 273/5/3 263/5/3
f 276/5/3 274/5/3 273/5/3
f 277/3/3 275/3/3 274/3/3
f 277/5/3 274/5/3 276/5/3
f 278/3/3 275/3/3 277/3/3
f 283/2/3 282/2/3 281/2/3
f 284/2/3 282/2/3 283/2/3
f 285/7/3 280/7/3 279/7/3
f 286/7/3 280/7/3 285/7/3
f 291/2/3 288/2/3 287/2/3
f 292/3/3 290/3/3 289/3/3
f 292/2/3 288/2/3 291/2/3
f 292/3/3 289/3/3 288/3/3
f 293/3/3 290/3/3 292/3/3
f 296/8/3 295/8/3 294/8/3
f 297/8/3 295/8/3 296/8/3
f 298/8/4 299/8/4 300/8/4
f 300/8/4 299/8/4 301/8/4
f 304/2/4 305/2/4 306/2/4
f 306/2/4 305/2/4 307/2/4
f 302/7/4 303/7/4 308/7/4
f 308/7/4 303/7/4 309/7/4
f 310/2/4 311/2/4 314/2/4
f 312/3/4 313/3/4 315/3/4
f 314/2/4 311/2/4 315/2/4
f 311/3/4 312/3/4 315/3/4
f 315/3/4 313/3/4 316/3/4
f 317/5/4 318/5/4 320/5/4
f 318/3/4 319/3/4 321/3/4
f 320/5/4 318/5/4 321/5/4
f 321/3/4 319/3/4 322/3/4
f 317/5/4 320/5/4 323/5/4
f 320/1/4 321/1/4 323/1/4
f 321/5/4 322/5/4 324/5/4
f 323/1/4 321/1/4 324/1/4
f 324/5/4 322/5/4 325/5/4
f 317/5/4 323/5/4 331/5/4
f 323/5/4 324/5/4 331/5/4
f 324/3/4 325/3/4 332/3/4
f 331/5/4 324/5/4 332/5/4
f 332/3/4 325/3/4 333/3/4
f 326/2/4 327/2/4 334/2/4
f 327/6/4 328/6/4 335/6/4
f 334/2/4 327/2/4 335/2/4
f 335/6/4 328/6/4 336/6/4
f 329/7/4 330/7/4 337/7/4
f 337/7/4 330/7/4 338/7/4
f 317/5/4 331/5/4 339/5/4
f 331/1/4 332/1/4 339/1/4
f 332/5/4 333/5/4 340/5/4
f 339/1/4 332/1/4 340/1/4
f 340/5/4 333/5/4 341/5/4
f 317/5/4 339/5/4 342/5/4
f 339/5/4 340/5/4 342/5/4
f 340/3/4 341/3/4 343/3/4
f 342/5/4 340/5/4 343/5/4
f 343/3/4 341/3/4 344/3/4
f 345/7/4 346/7/4 347/7/4
f 347/7/4 346/7/4 348/7/4
f 349/8/4 350/8/4 351/8/4
f 351/8/4 350/8/4 352/8/4
f 355/8/5 354/8/5 353/8/5
f 356/8/5 354/8/5 355/8/5
f 357/8/5 355/8/5 353/8/5
f 358/8/5 355/8/5 357/8/5
f 359/9/5 356/9/5 355/9/5
f 359/8/5 355/8/5 358/8/5
f 360/9/5 356/9/5 359/9/5
f 361/9/5 358/9/5 357/9/5
f 362/8/5 359/8/5 358/8/5
f 362/9/5 358/9/5 361/9/5
f 363/10/5 360/10/5 359/10/5
f 363/8/5 359/8/5 362/8/5
f 364/10/5 360/10/5 363/10/5
f 365/10/5 362/10/5 361/10/5
f 366/8/5 363/8/5 362/8/5
f 366/10/5 362/10/5 365/10/5
f 367/9/5 364/9/5 363/9/5
f 367/8/5 363/8/5 366/8/5
f 368/9/5 364/9/5 367/9/5
f 369/9/5 366/9/5 365/9/5
f 370/8/5 367/8/5 366/8/5
f 370/9/5 366/9/5 369/9/5
f 370/8/5 368/8/5 367/8/5
f 371/8/5 370/8/5 369/8/5
f 371/8/5 368/8/5 370/8/5
f 372/8/5 368/8/5 371/8/5
f 373/8/5 371/8/5 369/8/5
f 374/8/5 371/8/5 373/8/5
f 375/9/5 372/9/5 371/9/5
f 375/8/5 371/8/5 374/8/5
f 376/9/5 372/9/5 375/9/5
f 377/9/5 374/9/5 373/9/5
f 378/8/5 375/8/5 374/8/5
f 378/9/5 374/9/5 377/9/5
f 379/10/5 376/10/5 375/10/5
f 379/8/5 375/8/5 378/8/5
f 380/10/5 376/10/5 379/10/5
f 381/10/5 378/10/5 377/10/5
f 382/8/5 379/8/5 378/8/5
f 382/10/5 378/10/5 381/10/5
f 383/9/5 380/9/5 379/9/5
f 383/8/5 379/8/5 382/8/5
f 384/9/5 380/9/5 383/9/5
f 385/9/5 382/9/5 381/9/5
f 386/8/5 383/8/5 382/8/5
f 386/9/5 382/9/5 385/9/5
f 386/8/5 384/8/5 383/8/5
f 387/8/5 386/8/5 385/8/5
f 388/8/5 384/8/5 386/8/5
f 388/8/5 386/8/5 387/8/5
f 391/2/5 390/2/5 389/2/5
f 392/2/5 390/2/5 391/2/5
f 395/2/5 394/2/5 393/2/5
f 396/2/5 394/2/5 395/2/5
f 397/2/5 395/2/5 393/2/5
f 398/2/5 394/2/5 396/2/5
f 399/2/5 397/2/5 393/2/5
f 399/2/5 398/2/5 397/2/5
f 400/2/5 394/2/5 398/2/5
f 400/2/5 398/2/5 399/2/5
f 403/7/5 402/7/5 401/7/5
f 404/7/5 402/7/5 403/7/5
f 405/7/5 402/7/5 404/7/5
f 406/7/5 402/7/5 405/7/5
f 407/7/5 402/7/5 406/7/5
f 408/7/5 402/7/5 407/7/5
f 409/7/5 403/7/5 401/7/5
f 410/7/5 402/7/5 408/7/5
f 411/7/5 409/7/5 401/7/5
f 412/7/5 402/7/5 410/7/5
f 413/7/5 411/7/5 401/7/5
f 413/7/5 412/7/5 411/7/5
f 414/7/5 402/7/5 412/7/5
f 414/7/5 412/7/5 413/7/5
f 417/6/5 416/6/5 415/6/5
f 418/6/5 416/6/5 417/6/5
f 423/6/5 420/6/5 419/6/5
f 424/6/5 420/6/5 423/6/5
f 425/6/5 422/6/5 421/6/5
f 426/6/5 422/6/5 425/6/5
f 427/8/6 428/8/6 429/8/6
f 429/8/6 428/8/6 430/8/6
f 430/8/6 428/8/6 431/8/6
f 431/8/6 428/8/6 432/8/6
f 427/8/6 429/8/6 433/8/6
f 430/8/6 431/8/6 434/8/6
f 434/8/6 431/8/6 435/8/6
f 432/8/6 428/8/6 436/8/6
f 434/8/6 435/8/6 437/8/6
f 437/8/6 435/8/6 438/8/6
f 427/8/6 433/8/6 439/8/6
f 436/8/6 428/8/6 440/8/6
f 427/8/6 439/8/6 441/8/6
f 439/8/6 440/8/6 441/8/6
f 440/8/6 428/8/6 442/8/6
f 441/8/6 440/8/6 442/8/6
f 443/2/6 444/2/6 447/2/6
f 447/2/6 444/2/6 448/2/6
f 445/2/6 446/2/6 449/2/6
f 449/2/6 446/2/6 450/2/6
f 447/5/6 448/5/6 451/5/6
f 451/5/6 448/5/6 452/5/6
f 449/5/6 450/5/6 453/5/6
f 453/5/6 450/5/6 454/5/6
f 455/8/6 456/8/6 457/8/6
f 457/8/6 456/8/6 458/8/6
f 455/8/6 457/8/6 459/8/6
f 458/8/6 456/8/6 460/8/6
f 455/8/6 459/8/6 461/8/6
f 459/8/6 460/8/6 461/8/6
f 460/8/6 456/8/6 462/8/6
f 461/8/6 460/8/6 462/8/6
f 463/3/6 464/3/6 465/3/6
f 465/3/6 464/3/6 466/3/6
f 469/3/6 470/3/6 473/3/6
f 473/3/6 470/3/6 474/3/6
f 469/3/6 473/3/6 475/3/6
f 474/3/6 470/3/6 476/3/6
f 467/3/6 468/3/6 477/3/6
f 468/5/6 469/5/6 478/5/6
f 477/3/6 468/3/6 478/3/6
f 475/3/6 476/3/6 479/3/6
f 478/5/6 469/5/6 479/5/6
f 469/3/6 475/3/6 479/3/6
f 470/5/6 471/5/6 480/5/6
f 479/3/6 476/3/6 480/3/6
f 476/3/6 470/3/6 480/3/6
f 471/3/6 472/3/6 481/3/6
f 480/5/6 471/5/6 481/5/6
f 481/3/6 472/3/6 482/3/6
f 483/6/6 484/6/6 488/6/6
f 488/6/6 484/6/6 489/6/6
f 485/6/6 486/6/6 490/6/6
f 490/6/6 486/6/6 491/6/6
f 488/7/6 489/7/6 493/7/6
f 487/7/6 488/7/6 493/7/6
f 493/7/6 489/7/6 494/7/6
f 491/7/6 492/7/6 495/7/6
f 490/7/6 491/7/6 495/7/6
f 495/7/6 492/7/6 496/7/6
f 487/7/6 493/7/6 497/7/6
f 496/7/6 492/7/6 498/7/6
f 487/7/6 497/7/6 499/7/6
f 497/7/6 498/7/6 499/7/6
f 498/7/6 492/7/6 500/7/6
f 499/7/6 498/7/6 500/7/6
f 501/6/6 502/6/6 503/6/6
f 503/6/6 502/6/6 504/6/6
f 503/7/6 504/7/6 506/7/6
f 506/7/6 504/7/6 507/7/6
f 506/7/6 507/7/6 509/7/6
f 507/7/6 508/7/6 509/7/6
f 505/7/6 506/7/6 509/7/6
f 509/7/6 508/7/6 510/7/6
f 505/7/6 509/7/6 511/7/6
f 510/7/6 508/7/6 512/7/6
f 505/7/6 511/7/6 513/7/6
f 511/7/6 512/7/6 513/7/6
f 512/7/6 508/7/6 514/7/6
f 513/7/6 512/7/6 514/7/6
f 515/7/6 516/7/6 517/7/6
f 517/7/6 516/7/6 518/7/6
