# MagicaVoxel @ Ephtracy

# group
o 

# material
mtllib armf3.mtl
usemtl palette

# normals
vn -1 0 0
vn 1 0 0
vn 0 0 1
vn 0 0 -1
vn 0 -1 0
vn 0 1 0

# texcoords
vt 0.0605469 0.5
vt 0.0917969 0.5
vt 0.228516 0.5
vt 0.966797 0.5

# verts
v -0.2 0.7 -0.2
v -0.2 0.7 -0.3
v -0.2 0.9 -0.2
v -0.2 0.9 -0.3
v -0.2 1.2 -0.2
v -0.2 1.2 -0.3
v -0.2 1.3 0
v -0.2 1.3 -0.2
v -0.2 1.3 -0.3
v -0.2 1.3 -0.5
v -0.2 1.4 0
v -0.2 1.4 -0.1
v -0.2 1.4 -0.4
v -0.2 1.4 -0.5
v -0.2 1.5 -0.1
v -0.2 1.5 -0.4
v -0.1 0 -0.2
v -0.1 0 -0.3
v -0.1 0.7 0.6
v -0.1 0.7 -0.1
v -0.1 0.7 -0.2
v -0.1 0.7 -0.3
v -0.1 0.7 -0.4
v -0.1 0.9 0.6
v -0.1 0.9 -0.1
v -0.1 0.9 -0.2
v -0.1 0.9 -0.3
v -0.1 0.9 -0.4
v -0.1 1.1 0.5
v -0.1 1.1 0.4
v -0.1 1.1 -0.9
v -0.1 1.1 -1
v -0.1 1.2 0.4
v -0.1 1.2 0.1
v -0.1 1.2 -0.1
v -0.1 1.2 -0.2
v -0.1 1.2 -0.3
v -0.1 1.2 -0.4
v -0.1 1.2 -0.6
v -0.1 1.2 -0.9
v -0.1 1.3 0.5
v -0.1 1.3 0.4
v -0.1 1.3 0.1
v -0.1 1.3 0
v -0.1 1.3 -0.1
v -0.1 1.3 -0.2
v -0.1 1.3 -0.3
v -0.1 1.3 -0.4
v -0.1 1.3 -0.5
v -0.1 1.3 -0.6
v -0.1 1.3 -0.9
v -0.1 1.3 -1
v -0.1 1.4 0.4
v -0.1 1.4 0.1
v -0.1 1.4 0
v -0.1 1.4 -0.1
v -0.1 1.4 -0.4
v -0.1 1.4 -0.5
v -0.1 1.4 -0.6
v -0.1 1.4 -0.9
v -0.1 1.5 0.1
v -0.1 1.5 -0.1
v -0.1 1.5 -0.4
v -0.1 1.5 -0.6
v -0.1 1.6 -0.1
v -0.1 1.6 -0.4
v 0 0 -0.2
v 0 0 -0.3
v 0 0.7 -0.2
v 0 0.7 -0.3
v 0 0.9 -0.2
v 0 0.9 -0.3
v 0 1.1 0.5
v 0 1.1 0.4
v 0 1.1 -0.9
v 0 1.1 -1
v 0 1.2 0.4
v 0 1.2 0.1
v 0 1.2 -0.1
v 0 1.2 -0.2
v 0 1.2 -0.3
v 0 1.2 -0.4
v 0 1.2 -0.6
v 0 1.2 -0.9
v 0 1.3 0.5
v 0 1.3 0.4
v 0 1.3 0.1
v 0 1.3 0
v 0 1.3 -0.1
v 0 1.3 -0.2
v 0 1.3 -0.3
v 0 1.3 -0.4
v 0 1.3 -0.5
v 0 1.3 -0.6
v 0 1.3 -0.9
v 0 1.3 -1
v 0 1.4 0.4
v 0 1.4 0.1
v 0 1.4 0
v 0 1.4 -0.1
v 0 1.4 -0.4
v 0 1.4 -0.5
v 0 1.4 -0.6
v 0 1.4 -0.9
v 0 1.5 0.1
v 0 1.5 -0.1
v 0 1.5 -0.4
v 0 1.5 -0.6
v 0 1.6 -0.1
v 0 1.6 -0.4
v 0.1 0.7 0.6
v 0.1 0.7 -0.1
v 0.1 0.7 -0.4
v 0.1 0.9 0.6
v 0.1 0.9 -0.1
v 0.1 0.9 -0.4
v 0.1 1.2 -0.2
v 0.1 1.2 -0.3
v 0.1 1.3 0
v 0.1 1.3 -0.2
v 0.1 1.3 -0.3
v 0.1 1.3 -0.5
v 0.1 1.4 0
v 0.1 1.4 -0.1
v 0.1 1.4 -0.4
v 0.1 1.4 -0.5
v 0.1 1.5 -0.1
v 0.1 1.5 -0.4
v -0.1 0.7 0.6
v -0.1 0.9 0.6
v 0.1 0.7 0.6
v 0.1 0.9 0.6
v -0.1 1.1 0.5
v -0.1 1.3 0.5
v 0 1.1 0.5
v 0 1.3 0.5
v -0.1 1.3 0.4
v -0.1 1.4 0.4
v 0 1.3 0.4
v 0 1.4 0.4
v -0.1 1.4 0.1
v -0.1 1.5 0.1
v 0 1.4 0.1
v 0 1.5 0.1
v -0.2 1.3 0
v -0.2 1.4 0
v -0.1 1.3 0
v -0.1 1.4 0
v 0 1.3 0
v 0 1.4 0
v 0.1 1.3 0
v 0.1 1.4 0
v -0.2 1.4 -0.1
v -0.2 1.5 -0.1
v -0.1 1.2 -0.1
v -0.1 1.3 -0.1
v -0.1 1.4 -0.1
v -0.1 1.5 -0.1
v -0.1 1.6 -0.1
v 0 1.2 -0.1
v 0 1.3 -0.1
v 0 1.4 -0.1
v 0 1.5 -0.1
v 0 1.6 -0.1
v 0.1 1.4 -0.1
v 0.1 1.5 -0.1
v -0.2 0.7 -0.2
v -0.2 0.9 -0.2
v -0.2 1.2 -0.2
v -0.2 1.3 -0.2
v -0.1 0 -0.2
v -0.1 0.7 -0.2
v -0.1 0.9 -0.2
v -0.1 1.2 -0.2
v -0.1 1.3 -0.2
v 0 0 -0.2
v 0 0.7 -0.2
v 0 0.9 -0.2
v 0 1.2 -0.2
v 0 1.3 -0.2
v 0.1 1.2 -0.2
v 0.1 1.3 -0.2
v -0.1 1.2 -0.6
v -0.1 1.3 -0.6
v 0 1.2 -0.6
v 0 1.3 -0.6
v -0.1 1.1 -0.9
v -0.1 1.2 -0.9
v 0 1.1 -0.9
v 0 1.2 -0.9
v -0.1 1.1 0.4
v -0.1 1.2 0.4
v 0 1.1 0.4
v 0 1.2 0.4
v -0.1 1.2 0.1
v -0.1 1.3 0.1
v 0 1.2 0.1
v 0 1.3 0.1
v -0.2 0.7 -0.3
v -0.2 0.9 -0.3
v -0.2 1.2 -0.3
v -0.2 1.3 -0.3
v -0.1 0 -0.3
v -0.1 0.7 -0.3
v -0.1 0.9 -0.3
v -0.1 1.2 -0.3
v -0.1 1.3 -0.3
v 0 0 -0.3
v 0 0.7 -0.3
v 0 0.9 -0.3
v 0 1.2 -0.3
v 0 1.3 -0.3
v 0.1 1.2 -0.3
v 0.1 1.3 -0.3
v -0.2 1.4 -0.4
v -0.2 1.5 -0.4
v -0.1 0.7 -0.4
v -0.1 0.9 -0.4
v -0.1 1.2 -0.4
v -0.1 1.3 -0.4
v -0.1 1.4 -0.4
v -0.1 1.5 -0.4
v -0.1 1.6 -0.4
v 0 1.2 -0.4
v 0 1.3 -0.4
v 0 1.4 -0.4
v 0 1.5 -0.4
v 0 1.6 -0.4
v 0.1 0.7 -0.4
v 0.1 0.9 -0.4
v 0.1 1.4 -0.4
v 0.1 1.5 -0.4
v -0.2 1.3 -0.5
v -0.2 1.4 -0.5
v -0.1 1.3 -0.5
v -0.1 1.4 -0.5
v 0 1.3 -0.5
v 0 1.4 -0.5
v 0.1 1.3 -0.5
v 0.1 1.4 -0.5
v -0.1 1.4 -0.6
v -0.1 1.5 -0.6
v 0 1.4 -0.6
v 0 1.5 -0.6
v -0.1 1.3 -0.9
v -0.1 1.4 -0.9
v 0 1.3 -0.9
v 0 1.4 -0.9
v -0.1 1.1 -1
v -0.1 1.3 -1
v 0 1.1 -1
v 0 1.3 -1
v -0.1 0 -0.2
v 0 0 -0.2
v -0.1 0 -0.3
v 0 0 -0.3
v -0.1 0.7 0.6
v 0.1 0.7 0.6
v -0.1 0.7 -0.1
v 0.1 0.7 -0.1
v -0.2 0.7 -0.2
v -0.1 0.7 -0.2
v 0 0.7 -0.2
v -0.2 0.7 -0.3
v -0.1 0.7 -0.3
v 0 0.7 -0.3
v -0.1 0.7 -0.4
v 0.1 0.7 -0.4
v -0.1 1.1 0.5
v 0 1.1 0.5
v -0.1 1.1 0.4
v 0 1.1 0.4
v -0.1 1.1 -0.9
v 0 1.1 -0.9
v -0.1 1.1 -1
v 0 1.1 -1
v -0.1 1.2 0.4
v 0 1.2 0.4
v -0.1 1.2 0.1
v 0 1.2 0.1
v -0.1 1.2 -0.1
v 0 1.2 -0.1
v -0.2 1.2 -0.2
v -0.1 1.2 -0.2
v 0 1.2 -0.2
v 0.1 1.2 -0.2
v -0.2 1.2 -0.3
v -0.1 1.2 -0.3
v 0 1.2 -0.3
v 0.1 1.2 -0.3
v -0.1 1.2 -0.4
v 0 1.2 -0.4
v -0.1 1.2 -0.6
v 0 1.2 -0.6
v -0.1 1.2 -0.9
v 0 1.2 -0.9
v -0.1 1.3 0.1
v 0 1.3 0.1
v -0.2 1.3 0
v -0.1 1.3 0
v 0 1.3 0
v 0.1 1.3 0
v -0.1 1.3 -0.1
v 0 1.3 -0.1
v -0.2 1.3 -0.2
v -0.1 1.3 -0.2
v 0 1.3 -0.2
v 0.1 1.3 -0.2
v -0.2 1.3 -0.3
v -0.1 1.3 -0.3
v 0 1.3 -0.3
v 0.1 1.3 -0.3
v -0.1 1.3 -0.4
v 0 1.3 -0.4
v -0.2 1.3 -0.5
v -0.1 1.3 -0.5
v 0 1.3 -0.5
v 0.1 1.3 -0.5
v -0.1 1.3 -0.6
v 0 1.3 -0.6
v -0.1 0.9 0.6
v 0.1 0.9 0.6
v -0.1 0.9 -0.1
v 0.1 0.9 -0.1
v -0.2 0.9 -0.2
v -0.1 0.9 -0.2
v 0 0.9 -0.2
v -0.2 0.9 -0.3
v -0.1 0.9 -0.3
v 0 0.9 -0.3
v -0.1 0.9 -0.4
v 0.1 0.9 -0.4
v -0.1 1.3 0.5
v 0 1.3 0.5
v -0.1 1.3 0.4
v 0 1.3 0.4
v -0.1 1.3 -0.9
v 0 1.3 -0.9
v -0.1 1.3 -1
v 0 1.3 -1
v -0.1 1.4 0.4
v 0 1.4 0.4
v -0.1 1.4 0.1
v 0 1.4 0.1
v -0.2 1.4 0
v -0.1 1.4 0
v 0 1.4 0
v 0.1 1.4 0
v -0.2 1.4 -0.1
v -0.1 1.4 -0.1
v 0 1.4 -0.1
v 0.1 1.4 -0.1
v -0.2 1.4 -0.4
v -0.1 1.4 -0.4
v 0 1.4 -0.4
v 0.1 1.4 -0.4
v -0.2 1.4 -0.5
v -0.1 1.4 -0.5
v 0 1.4 -0.5
v 0.1 1.4 -0.5
v -0.1 1.4 -0.6
v 0 1.4 -0.6
v -0.1 1.4 -0.9
v 0 1.4 -0.9
v -0.1 1.5 0.1
v 0 1.5 0.1
v -0.2 1.5 -0.1
v -0.1 1.5 -0.1
v 0 1.5 -0.1
v 0.1 1.5 -0.1
v -0.2 1.5 -0.4
v -0.1 1.5 -0.4
v 0 1.5 -0.4
v 0.1 1.5 -0.4
v -0.1 1.5 -0.6
v 0 1.5 -0.6
v -0.1 1.6 -0.1
v 0 1.6 -0.1
v -0.1 1.6 -0.4
v 0 1.6 -0.4

# faces
f 3/1/1 2/1/1 1/1/1
f 4/1/1 2/1/1 3/1/1
f 8/4/1 6/4/1 5/4/1
f 9/4/1 6/4/1 8/4/1
f 11/4/1 9/4/1 8/4/1
f 11/4/1 10/4/1 9/4/1
f 11/4/1 8/4/1 7/4/1
f 12/4/1 10/4/1 11/4/1
f 13/4/1 10/4/1 12/4/1
f 14/4/1 10/4/1 13/4/1
f 15/4/1 13/4/1 12/4/1
f 16/4/1 13/4/1 15/4/1
f 21/3/1 18/3/1 17/3/1
f 22/3/1 18/3/1 21/3/1
f 24/2/1 20/2/1 19/2/1
f 25/1/1 21/1/1 20/1/1
f 25/2/1 20/2/1 24/2/1
f 26/1/1 21/1/1 25/1/1
f 27/1/1 23/1/1 22/1/1
f 28/1/1 23/1/1 27/1/1
f 33/4/1 30/4/1 29/4/1
f 36/3/1 27/3/1 26/3/1
f 37/3/1 27/3/1 36/3/1
f 40/4/1 32/4/1 31/4/1
f 41/4/1 34/4/1 33/4/1
f 41/4/1 33/4/1 29/4/1
f 42/4/1 34/4/1 41/4/1
f 43/4/1 34/4/1 42/4/1
f 45/4/1 36/4/1 35/4/1
f 46/4/1 36/4/1 45/4/1
f 47/4/1 38/4/1 37/4/1
f 48/4/1 38/4/1 47/4/1
f 50/4/1 40/4/1 39/4/1
f 51/4/1 32/4/1 40/4/1
f 51/4/1 40/4/1 50/4/1
f 52/4/1 32/4/1 51/4/1
f 53/4/1 44/4/1 43/4/1
f 53/4/1 43/4/1 42/4/1
f 54/4/1 44/4/1 53/4/1
f 55/4/1 44/4/1 54/4/1
f 58/4/1 51/4/1 50/4/1
f 58/4/1 50/4/1 49/4/1
f 59/4/1 51/4/1 58/4/1
f 60/4/1 51/4/1 59/4/1
f 61/4/1 56/4/1 55/4/1
f 61/4/1 55/4/1 54/4/1
f 62/4/1 56/4/1 61/4/1
f 63/4/1 59/4/1 58/4/1
f 63/4/1 58/4/1 57/4/1
f 64/4/1 59/4/1 63/4/1
f 65/4/1 63/4/1 62/4/1
f 66/4/1 63/4/1 65/4/1
f 67/3/2 68/3/2 69/3/2
f 69/3/2 68/3/2 70/3/2
f 73/4/2 74/4/2 77/4/2
f 71/3/2 72/3/2 80/3/2
f 80/3/2 72/3/2 81/3/2
f 75/4/2 76/4/2 84/4/2
f 77/4/2 78/4/2 85/4/2
f 73/4/2 77/4/2 85/4/2
f 85/4/2 78/4/2 86/4/2
f 86/4/2 78/4/2 87/4/2
f 79/4/2 80/4/2 89/4/2
f 89/4/2 80/4/2 90/4/2
f 81/4/2 82/4/2 91/4/2
f 91/4/2 82/4/2 92/4/2
f 83/4/2 84/4/2 94/4/2
f 84/4/2 76/4/2 95/4/2
f 94/4/2 84/4/2 95/4/2
f 95/4/2 76/4/2 96/4/2
f 87/4/2 88/4/2 97/4/2
f 86/4/2 87/4/2 97/4/2
f 97/4/2 88/4/2 98/4/2
f 98/4/2 88/4/2 99/4/2
f 94/4/2 95/4/2 102/4/2
f 93/4/2 94/4/2 102/4/2
f 102/4/2 95/4/2 103/4/2
f 103/4/2 95/4/2 104/4/2
f 99/4/2 100/4/2 105/4/2
f 98/4/2 99/4/2 105/4/2
f 105/4/2 100/4/2 106/4/2
f 102/4/2 103/4/2 107/4/2
f 101/4/2 102/4/2 107/4/2
f 107/4/2 103/4/2 108/4/2
f 106/4/2 107/4/2 109/4/2
f 109/4/2 107/4/2 110/4/2
f 111/2/2 112/2/2 114/2/2
f 112/1/2 113/1/2 115/1/2
f 114/2/2 112/2/2 115/2/2
f 115/1/2 113/1/2 116/1/2
f 117/4/2 118/4/2 120/4/2
f 120/4/2 118/4/2 121/4/2
f 120/4/2 121/4/2 123/4/2
f 121/4/2 122/4/2 123/4/2
f 119/4/2 120/4/2 123/4/2
f 123/4/2 122/4/2 124/4/2
f 124/4/2 122/4/2 125/4/2
f 125/4/2 122/4/2 126/4/2
f 124/4/2 125/4/2 127/4/2
f 127/4/2 125/4/2 128/4/2
f 131/2/3 130/2/3 129/2/3
f 132/2/3 130/2/3 131/2/3
f 135/4/3 134/4/3 133/4/3
f 136/4/3 134/4/3 135/4/3
f 139/4/3 138/4/3 137/4/3
f 140/4/3 138/4/3 139/4/3
f 143/4/3 142/4/3 141/4/3
f 144/4/3 142/4/3 143/4/3
f 147/4/3 146/4/3 145/4/3
f 148/4/3 146/4/3 147/4/3
f 151/4/3 150/4/3 149/4/3
f 152/4/3 150/4/3 151/4/3
f 157/4/3 154/4/3 153/4/3
f 158/4/3 154/4/3 157/4/3
f 160/4/3 156/4/3 155/4/3
f 161/4/3 156/4/3 160/4/3
f 163/4/3 159/4/3 158/4/3
f 164/4/3 159/4/3 163/4/3
f 165/4/3 163/4/3 162/4/3
f 166/4/3 163/4/3 165/4/3
f 172/1/3 168/1/3 167/1/3
f 173/1/3 168/1/3 172/1/3
f 174/4/3 170/4/3 169/4/3
f 175/4/3 170/4/3 174/4/3
f 176/3/3 172/3/3 171/3/3
f 177/3/3 172/3/3 176/3/3
f 178/3/3 174/3/3 173/3/3
f 179/3/3 174/3/3 178/3/3
f 181/4/3 180/4/3 179/4/3
f 182/4/3 180/4/3 181/4/3
f 185/4/3 184/4/3 183/4/3
f 186/4/3 184/4/3 185/4/3
f 189/4/3 188/4/3 187/4/3
f 190/4/3 188/4/3 189/4/3
f 191/4/4 192/4/4 193/4/4
f 193/4/4 192/4/4 194/4/4
f 195/4/4 196/4/4 197/4/4
f 197/4/4 196/4/4 198/4/4
f 199/1/4 200/1/4 204/1/4
f 204/1/4 200/1/4 205/1/4
f 201/4/4 202/4/4 206/4/4
f 206/4/4 202/4/4 207/4/4
f 203/3/4 204/3/4 208/3/4
f 208/3/4 204/3/4 209/3/4
f 205/3/4 206/3/4 210/3/4
f 210/3/4 206/3/4 211/3/4
f 211/4/4 212/4/4 213/4/4
f 213/4/4 212/4/4 214/4/4
f 215/4/4 216/4/4 221/4/4
f 221/4/4 216/4/4 222/4/4
f 219/4/4 220/4/4 224/4/4
f 224/4/4 220/4/4 225/4/4
f 222/4/4 223/4/4 227/4/4
f 227/4/4 223/4/4 228/4/4
f 217/1/4 218/1/4 229/1/4
f 229/1/4 218/1/4 230/1/4
f 226/4/4 227/4/4 231/4/4
f 231/4/4 227/4/4 232/4/4
f 233/4/4 234/4/4 235/4/4
f 235/4/4 234/4/4 236/4/4
f 237/4/4 238/4/4 239/4/4
f 239/4/4 238/4/4 240/4/4
f 241/4/4 242/4/4 243/4/4
f 243/4/4 242/4/4 244/4/4
f 245/4/4 246/4/4 247/4/4
f 247/4/4 246/4/4 248/4/4
f 249/4/4 250/4/4 251/4/4
f 251/4/4 250/4/4 252/4/4
f 255/3/5 254/3/5 253/3/5
f 256/3/5 254/3/5 255/3/5
f 259/2/5 258/2/5 257/2/5
f 260/2/5 258/2/5 259/2/5
f 262/1/5 260/1/5 259/1/5
f 263/1/5 260/1/5 262/1/5
f 264/1/5 262/1/5 261/1/5
f 265/1/5 262/1/5 264/1/5
f 266/1/5 260/1/5 263/1/5
f 267/1/5 266/1/5 265/1/5
f 268/1/5 260/1/5 266/1/5
f 268/1/5 266/1/5 267/1/5
f 271/4/5 270/4/5 269/4/5
f 272/4/5 270/4/5 271/4/5
f 275/4/5 274/4/5 273/4/5
f 276/4/5 274/4/5 275/4/5
f 279/4/5 278/4/5 277/4/5
f 280/4/5 278/4/5 279/4/5
f 284/4/5 282/4/5 281/4/5
f 285/4/5 282/4/5 284/4/5
f 287/4/5 284/4/5 283/4/5
f 288/4/5 284/4/5 287/4/5
f 289/4/5 286/4/5 285/4/5
f 290/4/5 286/4/5 289/4/5
f 291/4/5 289/4/5 288/4/5
f 292/4/5 289/4/5 291/4/5
f 295/4/5 294/4/5 293/4/5
f 296/4/5 294/4/5 295/4/5
f 300/4/5 298/4/5 297/4/5
f 301/4/5 298/4/5 300/4/5
f 303/4/5 300/4/5 299/4/5
f 303/4/5 302/4/5 301/4/5
f 303/4/5 301/4/5 300/4/5
f 304/4/5 302/4/5 303/4/5
f 305/4/5 303/4/5 299/4/5
f 306/4/5 303/4/5 305/4/5
f 307/4/5 302/4/5 304/4/5
f 308/4/5 302/4/5 307/4/5
f 313/4/5 310/4/5 309/4/5
f 314/4/5 312/4/5 311/4/5
f 315/4/5 313/4/5 309/4/5
f 315/4/5 314/4/5 313/4/5
f 316/4/5 314/4/5 315/4/5
f 317/4/5 312/4/5 314/4/5
f 317/4/5 314/4/5 316/4/5
f 318/4/5 312/4/5 317/4/5
f 319/4/5 317/4/5 316/4/5
f 320/4/5 317/4/5 319/4/5
f 321/2/6 322/2/6 323/2/6
f 323/2/6 322/2/6 324/2/6
f 323/1/6 324/1/6 326/1/6
f 326/1/6 324/1/6 327/1/6
f 325/1/6 326/1/6 328/1/6
f 328/1/6 326/1/6 329/1/6
f 327/1/6 324/1/6 330/1/6
f 329/1/6 330/1/6 331/1/6
f 330/1/6 324/1/6 332/1/6
f 331/1/6 330/1/6 332/1/6
f 333/4/6 334/4/6 335/4/6
f 335/4/6 334/4/6 336/4/6
f 337/4/6 338/4/6 339/4/6
f 339/4/6 338/4/6 340/4/6
f 341/4/6 342/4/6 343/4/6
f 343/4/6 342/4/6 344/4/6
f 345/4/6 346/4/6 349/4/6
f 349/4/6 346/4/6 350/4/6
f 347/4/6 348/4/6 351/4/6
f 351/4/6 348/4/6 352/4/6
f 353/4/6 354/4/6 357/4/6
f 357/4/6 354/4/6 358/4/6
f 355/4/6 356/4/6 359/4/6
f 359/4/6 356/4/6 360/4/6
f 361/4/6 362/4/6 363/4/6
f 363/4/6 362/4/6 364/4/6
f 365/4/6 366/4/6 368/4/6
f 368/4/6 366/4/6 369/4/6
f 367/4/6 368/4/6 371/4/6
f 371/4/6 368/4/6 372/4/6
f 369/4/6 370/4/6 373/4/6
f 373/4/6 370/4/6 374/4/6
f 372/4/6 373/4/6 375/4/6
f 375/4/6 373/4/6 376/4/6
f 377/4/6 378/4/6 379/4/6
f 379/4/6 378/4/6 380/4/6
