# MagicaVoxel @ Ephtracy

# group
o 

# material
mtllib armf.mtl
usemtl palette

# normals
vn -1 0 0
vn 1 0 0
vn 0 0 1
vn 0 0 -1
vn 0 -1 0
vn 0 1 0

# texcoords
vt 0.0605469 0.5
vt 0.0917969 0.5
vt 0.228516 0.5
vt 0.966797 0.5

# verts
v -1 1.1 0.1
v -1 1.1 0
v -1 1.3 0.1
v -1 1.3 0
v -0.9 1.3 0.1
v -0.9 1.3 0
v -0.9 1.4 0.1
v -0.9 1.4 0
v -0.6 1.4 0.1
v -0.6 1.4 0
v -0.6 1.5 0.1
v -0.6 1.5 0
v -0.5 1.3 0.2
v -0.5 1.3 0.1
v -0.5 1.3 0
v -0.5 1.3 -0.1
v -0.5 1.4 0.2
v -0.5 1.4 0.1
v -0.5 1.4 0
v -0.5 1.4 -0.1
v -0.4 0.7 0.1
v -0.4 0.7 -0.1
v -0.4 0.9 0.1
v -0.4 0.9 -0.1
v -0.4 1.2 0.1
v -0.4 1.2 0
v -0.4 1.3 0.1
v -0.4 1.3 0
v -0.4 1.4 0.2
v -0.4 1.4 0.1
v -0.4 1.4 0
v -0.4 1.4 -0.1
v -0.4 1.5 0.2
v -0.4 1.5 0.1
v -0.4 1.5 0
v -0.4 1.5 -0.1
v -0.4 1.6 0.1
v -0.4 1.6 0
v -0.3 0 0.1
v -0.3 0 0
v -0.3 0.7 0.2
v -0.3 0.7 0.1
v -0.3 0.7 0
v -0.3 0.9 0.2
v -0.3 0.9 0.1
v -0.3 0.9 0
v -0.3 1.2 0.2
v -0.3 1.2 0.1
v -0.3 1.2 0
v -0.3 1.2 -0.1
v -0.3 1.3 0.2
v -0.3 1.3 0.1
v -0.3 1.3 0
v -0.3 1.3 -0.1
v 0.1 1.2 0.1
v 0.1 1.2 0
v 0.1 1.3 0.1
v 0.1 1.3 0
v 0.4 1.1 0.1
v 0.4 1.1 0
v 0.4 1.2 0.1
v 0.4 1.2 0
v -0.9 1.1 0.1
v -0.9 1.1 0
v -0.9 1.2 0.1
v -0.9 1.2 0
v -0.6 1.2 0.1
v -0.6 1.2 0
v -0.6 1.3 0.1
v -0.6 1.3 0
v -0.2 0 0.1
v -0.2 0 0
v -0.2 0.7 0.2
v -0.2 0.7 0.1
v -0.2 0.7 0
v -0.2 0.9 0.2
v -0.2 0.9 0.1
v -0.2 0.9 0
v -0.2 1.2 0.2
v -0.2 1.2 0.1
v -0.2 1.2 0
v -0.2 1.2 -0.1
v -0.2 1.3 0.2
v -0.2 1.3 0.1
v -0.2 1.3 0
v -0.2 1.3 -0.1
v -0.1 1.2 0.1
v -0.1 1.2 0
v -0.1 1.3 0.1
v -0.1 1.3 0
v -0.1 1.4 0.2
v -0.1 1.4 0.1
v -0.1 1.4 0
v -0.1 1.4 -0.1
v -0.1 1.5 0.2
v -0.1 1.5 0.1
v -0.1 1.5 0
v -0.1 1.5 -0.1
v -0.1 1.6 0.1
v -0.1 1.6 0
v 0 1.3 0.2
v 0 1.3 0.1
v 0 1.3 0
v 0 1.3 -0.1
v 0 1.4 0.2
v 0 1.4 0.1
v 0 1.4 0
v 0 1.4 -0.1
v 0.1 1.4 0.1
v 0.1 1.4 0
v 0.1 1.5 0.1
v 0.1 1.5 0
v 0.4 1.3 0.1
v 0.4 1.3 0
v 0.4 1.4 0.1
v 0.4 1.4 0
v 0.5 1.1 0.1
v 0.5 1.1 0
v 0.5 1.3 0.1
v 0.5 1.3 0
v 0.6 0.7 0.1
v 0.6 0.7 -0.1
v 0.6 0.9 0.1
v 0.6 0.9 -0.1
v -0.5 1.3 0.2
v -0.5 1.4 0.2
v -0.4 1.4 0.2
v -0.4 1.5 0.2
v -0.3 0.7 0.2
v -0.3 0.9 0.2
v -0.3 1.2 0.2
v -0.3 1.3 0.2
v -0.2 0.7 0.2
v -0.2 0.9 0.2
v -0.2 1.2 0.2
v -0.2 1.3 0.2
v -0.1 1.4 0.2
v -0.1 1.5 0.2
v 0 1.3 0.2
v 0 1.4 0.2
v -1 1.1 0.1
v -1 1.3 0.1
v -0.9 1.1 0.1
v -0.9 1.2 0.1
v -0.9 1.3 0.1
v -0.9 1.4 0.1
v -0.6 1.2 0.1
v -0.6 1.3 0.1
v -0.6 1.4 0.1
v -0.6 1.5 0.1
v -0.5 1.3 0.1
v -0.5 1.4 0.1
v -0.4 0.7 0.1
v -0.4 0.9 0.1
v -0.4 1.2 0.1
v -0.4 1.3 0.1
v -0.4 1.4 0.1
v -0.4 1.5 0.1
v -0.4 1.6 0.1
v -0.3 0 0.1
v -0.3 0.7 0.1
v -0.3 0.9 0.1
v -0.3 1.2 0.1
v -0.3 1.3 0.1
v -0.2 0 0.1
v -0.2 0.7 0.1
v -0.2 0.9 0.1
v -0.2 1.2 0.1
v -0.2 1.3 0.1
v -0.1 0.7 0.1
v -0.1 0.9 0.1
v -0.1 1.2 0.1
v -0.1 1.3 0.1
v -0.1 1.4 0.1
v -0.1 1.5 0.1
v -0.1 1.6 0.1
v 0 1.3 0.1
v 0 1.4 0.1
v 0.1 1.2 0.1
v 0.1 1.3 0.1
v 0.1 1.4 0.1
v 0.1 1.5 0.1
v 0.4 1.1 0.1
v 0.4 1.2 0.1
v 0.4 1.3 0.1
v 0.4 1.4 0.1
v 0.5 1.1 0.1
v 0.5 1.3 0.1
v 0.6 0.7 0.1
v 0.6 0.9 0.1
v -1 1.1 0
v -1 1.3 0
v -0.9 1.1 0
v -0.9 1.2 0
v -0.9 1.3 0
v -0.9 1.4 0
v -0.6 1.2 0
v -0.6 1.3 0
v -0.6 1.4 0
v -0.6 1.5 0
v -0.5 1.3 0
v -0.5 1.4 0
v -0.4 1.2 0
v -0.4 1.3 0
v -0.4 1.4 0
v -0.4 1.5 0
v -0.4 1.6 0
v -0.3 0 0
v -0.3 0.7 0
v -0.3 0.9 0
v -0.3 1.2 0
v -0.3 1.3 0
v -0.2 0 0
v -0.2 0.7 0
v -0.2 0.9 0
v -0.2 1.2 0
v -0.2 1.3 0
v -0.1 1.2 0
v -0.1 1.3 0
v -0.1 1.4 0
v -0.1 1.5 0
v -0.1 1.6 0
v 0 1.3 0
v 0 1.4 0
v 0.1 1.2 0
v 0.1 1.3 0
v 0.1 1.4 0
v 0.1 1.5 0
v 0.4 1.1 0
v 0.4 1.2 0
v 0.4 1.3 0
v 0.4 1.4 0
v 0.5 1.1 0
v 0.5 1.3 0
v -0.5 1.3 -0.1
v -0.5 1.4 -0.1
v -0.4 0.7 -0.1
v -0.4 0.9 -0.1
v -0.4 1.4 -0.1
v -0.4 1.5 -0.1
v -0.3 1.2 -0.1
v -0.3 1.3 -0.1
v -0.2 1.2 -0.1
v -0.2 1.3 -0.1
v -0.1 0.7 -0.1
v -0.1 0.9 -0.1
v -0.1 1.4 -0.1
v -0.1 1.5 -0.1
v 0 1.3 -0.1
v 0 1.4 -0.1
v 0.6 0.7 -0.1
v 0.6 0.9 -0.1
v -0.3 0 0.1
v -0.2 0 0.1
v -0.3 0 0
v -0.2 0 0
v -0.3 0.7 0.2
v -0.2 0.7 0.2
v -0.4 0.7 0.1
v -0.3 0.7 0.1
v -0.2 0.7 0.1
v -0.1 0.7 0.1
v 0.6 0.7 0.1
v -0.3 0.7 0
v -0.2 0.7 0
v -0.4 0.7 -0.1
v -0.1 0.7 -0.1
v 0.6 0.7 -0.1
v -1 1.1 0.1
v -0.9 1.1 0.1
v 0.4 1.1 0.1
v 0.5 1.1 0.1
v -1 1.1 0
v -0.9 1.1 0
v 0.4 1.1 0
v 0.5 1.1 0
v -0.3 1.2 0.2
v -0.2 1.2 0.2
v -0.9 1.2 0.1
v -0.6 1.2 0.1
v -0.4 1.2 0.1
v -0.3 1.2 0.1
v -0.2 1.2 0.1
v -0.1 1.2 0.1
v 0.1 1.2 0.1
v 0.4 1.2 0.1
v -0.9 1.2 0
v -0.6 1.2 0
v -0.4 1.2 0
v -0.3 1.2 0
v -0.2 1.2 0
v -0.1 1.2 0
v 0.1 1.2 0
v 0.4 1.2 0
v -0.3 1.2 -0.1
v -0.2 1.2 -0.1
v -0.5 1.3 0.2
v -0.3 1.3 0.2
v -0.2 1.3 0.2
v 0 1.3 0.2
v -0.6 1.3 0.1
v -0.5 1.3 0.1
v -0.4 1.3 0.1
v -0.3 1.3 0.1
v -0.2 1.3 0.1
v -0.1 1.3 0.1
v 0 1.3 0.1
v 0.1 1.3 0.1
v -0.6 1.3 0
v -0.5 1.3 0
v -0.4 1.3 0
v -0.3 1.3 0
v -0.2 1.3 0
v -0.1 1.3 0
v 0 1.3 0
v 0.1 1.3 0
v -0.5 1.3 -0.1
v -0.3 1.3 -0.1
v -0.2 1.3 -0.1
v 0 1.3 -0.1
v -0.3 0.9 0.2
v -0.2 0.9 0.2
v -0.4 0.9 0.1
v -0.3 0.9 0.1
v -0.2 0.9 0.1
v -0.1 0.9 0.1
v 0.6 0.9 0.1
v -0.3 0.9 0
v -0.2 0.9 0
v -0.4 0.9 -0.1
v -0.1 0.9 -0.1
v 0.6 0.9 -0.1
v -1 1.3 0.1
v -0.9 1.3 0.1
v 0.4 1.3 0.1
v 0.5 1.3 0.1
v -1 1.3 0
v -0.9 1.3 0
v 0.4 1.3 0
v 0.5 1.3 0
v -0.5 1.4 0.2
v -0.4 1.4 0.2
v -0.1 1.4 0.2
v 0 1.4 0.2
v -0.9 1.4 0.1
v -0.6 1.4 0.1
v -0.5 1.4 0.1
v -0.4 1.4 0.1
v -0.1 1.4 0.1
v 0 1.4 0.1
v 0.1 1.4 0.1
v 0.4 1.4 0.1
v -0.9 1.4 0
v -0.6 1.4 0
v -0.5 1.4 0
v -0.4 1.4 0
v -0.1 1.4 0
v 0 1.4 0
v 0.1 1.4 0
v 0.4 1.4 0
v -0.5 1.4 -0.1
v -0.4 1.4 -0.1
v -0.1 1.4 -0.1
v 0 1.4 -0.1
v -0.4 1.5 0.2
v -0.1 1.5 0.2
v -0.6 1.5 0.1
v -0.4 1.5 0.1
v -0.1 1.5 0.1
v 0.1 1.5 0.1
v -0.6 1.5 0
v -0.4 1.5 0
v -0.1 1.5 0
v 0.1 1.5 0
v -0.4 1.5 -0.1
v -0.1 1.5 -0.1
v -0.4 1.6 0.1
v -0.1 1.6 0.1
v -0.4 1.6 0
v -0.1 1.6 0

# faces
f 3/4/1 2/4/1 1/4/1
f 4/4/1 2/4/1 3/4/1
f 7/4/1 6/4/1 5/4/1
f 8/4/1 6/4/1 7/4/1
f 11/4/1 10/4/1 9/4/1
f 12/4/1 10/4/1 11/4/1
f 17/4/1 14/4/1 13/4/1
f 18/4/1 14/4/1 17/4/1
f 19/4/1 16/4/1 15/4/1
f 20/4/1 16/4/1 19/4/1
f 23/1/1 22/1/1 21/1/1
f 24/1/1 22/1/1 23/1/1
f 27/4/1 26/4/1 25/4/1
f 28/4/1 26/4/1 27/4/1
f 33/4/1 30/4/1 29/4/1
f 34/4/1 30/4/1 33/4/1
f 35/4/1 32/4/1 31/4/1
f 36/4/1 32/4/1 35/4/1
f 37/4/1 35/4/1 34/4/1
f 38/4/1 35/4/1 37/4/1
f 42/3/1 40/3/1 39/3/1
f 43/3/1 40/3/1 42/3/1
f 44/1/1 42/1/1 41/1/1
f 45/1/1 42/1/1 44/1/1
f 48/3/1 46/3/1 45/3/1
f 49/3/1 46/3/1 48/3/1
f 51/4/1 48/4/1 47/4/1
f 52/4/1 48/4/1 51/4/1
f 53/4/1 50/4/1 49/4/1
f 54/4/1 50/4/1 53/4/1
f 57/4/1 56/4/1 55/4/1
f 58/4/1 56/4/1 57/4/1
f 61/4/1 60/4/1 59/4/1
f 62/4/1 60/4/1 61/4/1
f 63/4/2 64/4/2 65/4/2
f 65/4/2 64/4/2 66/4/2
f 67/4/2 68/4/2 69/4/2
f 69/4/2 68/4/2 70/4/2
f 71/3/2 72/3/2 74/3/2
f 74/3/2 72/3/2 75/3/2
f 73/1/2 74/1/2 76/1/2
f 76/1/2 74/1/2 77/1/2
f 77/3/2 78/3/2 80/3/2
f 80/3/2 78/3/2 81/3/2
f 79/4/2 80/4/2 83/4/2
f 83/4/2 80/4/2 84/4/2
f 81/4/2 82/4/2 85/4/2
f 85/4/2 82/4/2 86/4/2
f 87/4/2 88/4/2 89/4/2
f 89/4/2 88/4/2 90/4/2
f 91/4/2 92/4/2 95/4/2
f 95/4/2 92/4/2 96/4/2
f 93/4/2 94/4/2 97/4/2
f 97/4/2 94/4/2 98/4/2
f 96/4/2 97/4/2 99/4/2
f 99/4/2 97/4/2 100/4/2
f 101/4/2 102/4/2 105/4/2
f 105/4/2 102/4/2 106/4/2
f 103/4/2 104/4/2 107/4/2
f 107/4/2 104/4/2 108/4/2
f 109/4/2 110/4/2 111/4/2
f 111/4/2 110/4/2 112/4/2
f 113/4/2 114/4/2 115/4/2
f 115/4/2 114/4/2 116/4/2
f 117/4/2 118/4/2 119/4/2
f 119/4/2 118/4/2 120/4/2
f 121/2/2 122/2/2 123/2/2
f 123/2/2 122/2/2 124/2/2
f 127/4/3 126/4/3 125/4/3
f 132/4/3 127/4/3 125/4/3
f 132/4/3 128/4/3 127/4/3
f 133/1/3 130/1/3 129/1/3
f 134/1/3 130/1/3 133/1/3
f 135/4/3 132/4/3 131/4/3
f 136/4/3 128/4/3 132/4/3
f 136/4/3 132/4/3 135/4/3
f 137/4/3 128/4/3 136/4/3
f 138/4/3 128/4/3 137/4/3
f 139/4/3 137/4/3 136/4/3
f 140/4/3 137/4/3 139/4/3
f 143/4/3 142/4/3 141/4/3
f 144/4/3 142/4/3 143/4/3
f 145/4/3 142/4/3 144/4/3
f 147/4/3 146/4/3 145/4/3
f 147/4/3 145/4/3 144/4/3
f 148/4/3 146/4/3 147/4/3
f 149/4/3 146/4/3 148/4/3
f 151/4/3 150/4/3 149/4/3
f 151/4/3 149/4/3 148/4/3
f 152/4/3 150/4/3 151/4/3
f 157/4/3 150/4/3 152/4/3
f 158/4/3 150/4/3 157/4/3
f 161/1/3 154/1/3 153/1/3
f 162/1/3 154/1/3 161/1/3
f 163/4/3 156/4/3 155/4/3
f 164/4/3 156/4/3 163/4/3
f 165/3/3 161/3/3 160/3/3
f 166/3/3 161/3/3 165/3/3
f 167/3/3 163/3/3 162/3/3
f 168/3/3 163/3/3 167/3/3
f 170/1/3 167/1/3 166/1/3
f 171/1/3 167/1/3 170/1/3
f 172/4/3 169/4/3 168/4/3
f 173/4/3 169/4/3 172/4/3
f 175/4/3 159/4/3 158/4/3
f 176/4/3 159/4/3 175/4/3
f 178/4/3 175/4/3 174/4/3
f 180/4/3 178/4/3 177/4/3
f 181/4/3 175/4/3 178/4/3
f 181/4/3 178/4/3 180/4/3
f 182/4/3 175/4/3 181/4/3
f 184/4/3 180/4/3 179/4/3
f 184/4/3 181/4/3 180/4/3
f 185/4/3 181/4/3 184/4/3
f 186/4/3 181/4/3 185/4/3
f 187/4/3 184/4/3 183/4/3
f 187/4/3 185/4/3 184/4/3
f 188/4/3 185/4/3 187/4/3
f 189/2/3 171/2/3 170/2/3
f 190/2/3 171/2/3 189/2/3
f 191/4/4 192/4/4 193/4/4
f 193/4/4 192/4/4 194/4/4
f 194/4/4 192/4/4 195/4/4
f 195/4/4 196/4/4 197/4/4
f 194/4/4 195/4/4 197/4/4
f 197/4/4 196/4/4 198/4/4
f 198/4/4 196/4/4 199/4/4
f 199/4/4 200/4/4 201/4/4
f 198/4/4 199/4/4 201/4/4
f 201/4/4 200/4/4 202/4/4
f 202/4/4 200/4/4 205/4/4
f 205/4/4 200/4/4 206/4/4
f 203/4/4 204/4/4 211/4/4
f 211/4/4 204/4/4 212/4/4
f 208/3/4 209/3/4 213/3/4
f 213/3/4 209/3/4 214/3/4
f 210/3/4 211/3/4 215/3/4
f 215/3/4 211/3/4 216/3/4
f 216/4/4 217/4/4 218/4/4
f 218/4/4 217/4/4 219/4/4
f 206/4/4 207/4/4 221/4/4
f 221/4/4 207/4/4 222/4/4
f 220/4/4 221/4/4 224/4/4
f 223/4/4 224/4/4 226/4/4
f 224/4/4 221/4/4 227/4/4
f 226/4/4 224/4/4 227/4/4
f 227/4/4 221/4/4 228/4/4
f 225/4/4 226/4/4 230/4/4
f 226/4/4 227/4/4 230/4/4
f 230/4/4 227/4/4 231/4/4
f 231/4/4 227/4/4 232/4/4
f 229/4/4 230/4/4 233/4/4
f 230/4/4 231/4/4 233/4/4
f 233/4/4 231/4/4 234/4/4
f 235/4/4 236/4/4 239/4/4
f 235/4/4 239/4/4 242/4/4
f 239/4/4 240/4/4 242/4/4
f 241/4/4 242/4/4 243/4/4
f 242/4/4 240/4/4 244/4/4
f 243/4/4 242/4/4 244/4/4
f 237/1/4 238/1/4 245/1/4
f 245/1/4 238/1/4 246/1/4
f 244/4/4 240/4/4 247/4/4
f 247/4/4 240/4/4 248/4/4
f 244/4/4 247/4/4 249/4/4
f 249/4/4 247/4/4 250/4/4
f 245/2/4 246/2/4 251/2/4
f 251/2/4 246/2/4 252/2/4
f 255/3/5 254/3/5 253/3/5
f 256/3/5 254/3/5 255/3/5
f 260/1/5 258/1/5 257/1/5
f 261/1/5 258/1/5 260/1/5
f 264/1/5 260/1/5 259/1/5
f 265/1/5 262/1/5 261/1/5
f 266/1/5 264/1/5 259/1/5
f 266/1/5 265/1/5 264/1/5
f 267/2/5 263/2/5 262/2/5
f 267/1/5 265/1/5 266/1/5
f 267/1/5 262/1/5 265/1/5
f 268/2/5 263/2/5 267/2/5
f 273/4/5 270/4/5 269/4/5
f 274/4/5 270/4/5 273/4/5
f 275/4/5 272/4/5 271/4/5
f 276/4/5 272/4/5 275/4/5
f 282/4/5 278/4/5 277/4/5
f 283/4/5 278/4/5 282/4/5
f 287/4/5 280/4/5 279/4/5
f 288/4/5 280/4/5 287/4/5
f 289/4/5 282/4/5 281/4/5
f 290/4/5 282/4/5 289/4/5
f 291/4/5 284/4/5 283/4/5
f 292/4/5 284/4/5 291/4/5
f 293/4/5 286/4/5 285/4/5
f 294/4/5 286/4/5 293/4/5
f 295/4/5 291/4/5 290/4/5
f 296/4/5 291/4/5 295/4/5
f 302/4/5 298/4/5 297/4/5
f 303/4/5 298/4/5 302/4/5
f 304/4/5 298/4/5 303/4/5
f 305/4/5 300/4/5 299/4/5
f 306/4/5 300/4/5 305/4/5
f 307/4/5 300/4/5 306/4/5
f 309/4/5 302/4/5 301/4/5
f 309/4/5 303/4/5 302/4/5
f 310/4/5 303/4/5 309/4/5
f 311/4/5 303/4/5 310/4/5
f 314/4/5 308/4/5 307/4/5
f 314/4/5 307/4/5 306/4/5
f 315/4/5 308/4/5 314/4/5
f 316/4/5 308/4/5 315/4/5
f 317/4/5 312/4/5 311/4/5
f 317/4/5 311/4/5 310/4/5
f 318/4/5 312/4/5 317/4/5
f 319/4/5 315/4/5 314/4/5
f 319/4/5 314/4/5 313/4/5
f 320/4/5 315/4/5 319/4/5
f 321/1/6 322/1/6 324/1/6
f 324/1/6 322/1/6 325/1/6
f 323/1/6 324/1/6 328/1/6
f 325/1/6 326/1/6 329/1/6
f 323/1/6 328/1/6 330/1/6
f 328/1/6 329/1/6 330/1/6
f 326/2/6 327/2/6 331/2/6
f 330/1/6 329/1/6 331/1/6
f 329/1/6 326/1/6 331/1/6
f 331/2/6 327/2/6 332/2/6
f 333/4/6 334/4/6 337/4/6
f 337/4/6 334/4/6 338/4/6
f 335/4/6 336/4/6 339/4/6
f 339/4/6 336/4/6 340/4/6
f 341/4/6 342/4/6 347/4/6
f 347/4/6 342/4/6 348/4/6
f 343/4/6 344/4/6 349/4/6
f 349/4/6 344/4/6 350/4/6
f 345/4/6 346/4/6 353/4/6
f 353/4/6 346/4/6 354/4/6
f 351/4/6 352/4/6 359/4/6
f 359/4/6 352/4/6 360/4/6
f 355/4/6 356/4/6 361/4/6
f 361/4/6 356/4/6 362/4/6
f 357/4/6 358/4/6 363/4/6
f 363/4/6 358/4/6 364/4/6
f 365/4/6 366/4/6 368/4/6
f 368/4/6 366/4/6 369/4/6
f 367/4/6 368/4/6 371/4/6
f 371/4/6 368/4/6 372/4/6
f 369/4/6 370/4/6 373/4/6
f 373/4/6 370/4/6 374/4/6
f 372/4/6 373/4/6 375/4/6
f 375/4/6 373/4/6 376/4/6
f 377/4/6 378/4/6 379/4/6
f 379/4/6 378/4/6 380/4/6
