# MagicaVoxel @ Ephtracy

# group
o 

# material
mtllib Arrow.mtl
usemtl palette

# normals
vn -1 0 0
vn 1 0 0
vn 0 0 1
vn 0 0 -1
vn 0 -1 0
vn 0 1 0

# texcoords
vt 0.369141 0.5
vt 0.845703 0.5
vt 0.962891 0.5

# verts
v -0.7 0.2 0.2
v -0.7 0.2 0.1
v -0.7 0.2 -0.2
v -0.7 0.2 -0.3
v -0.7 0.3 0.2
v -0.7 0.3 0.1
v -0.7 0.3 -0.2
v -0.7 0.3 -0.3
v -0.6 0.2 0.1
v -0.6 0.2 0
v -0.6 0.2 -0.1
v -0.6 0.2 -0.2
v -0.6 0.3 0.1
v -0.6 0.3 0
v -0.6 0.3 -0.1
v -0.6 0.3 -0.2
v -0.1 0.2 0.1
v -0.1 0.2 0
v -0.1 0.2 -0.1
v -0.1 0.2 -0.2
v -0.1 0.3 0.1
v -0.1 0.3 0
v -0.1 0.3 -0.1
v -0.1 0.3 -0.2
v -0.6 0.2 0.2
v -0.6 0.2 0.1
v -0.6 0.2 -0.2
v -0.6 0.2 -0.3
v -0.6 0.3 0.2
v -0.6 0.3 0.1
v -0.6 0.3 -0.2
v -0.6 0.3 -0.3
v -0.5 0.2 0.1
v -0.5 0.2 0
v -0.5 0.2 -0.1
v -0.5 0.2 -0.2
v -0.5 0.3 0.1
v -0.5 0.3 0
v -0.5 0.3 -0.1
v -0.5 0.3 -0.2
v 0.1 0.2 0.1
v 0.1 0.2 0
v 0.1 0.2 -0.1
v 0.1 0.2 -0.2
v 0.1 0.3 0.1
v 0.1 0.3 0
v 0.1 0.3 -0.1
v 0.1 0.3 -0.2
v 0.2 0.2 0
v 0.2 0.2 -0.1
v 0.2 0.3 0
v 0.2 0.3 -0.1
v -0.7 0.2 0.2
v -0.7 0.3 0.2
v -0.6 0.2 0.2
v -0.6 0.3 0.2
v -0.6 0.2 0.1
v -0.6 0.3 0.1
v -0.5 0.2 0.1
v -0.5 0.3 0.1
v -0.1 0.2 0.1
v -0.1 0.3 0.1
v 0.1 0.2 0.1
v 0.1 0.3 0.1
v -0.5 0.2 0
v -0.5 0.3 0
v -0.1 0.2 0
v -0.1 0.3 0
v 0.1 0.2 0
v 0.1 0.3 0
v 0.2 0.2 0
v 0.2 0.3 0
v -0.7 0.2 -0.2
v -0.7 0.3 -0.2
v -0.6 0.2 -0.2
v -0.6 0.3 -0.2
v -0.7 0.2 0.1
v -0.7 0.3 0.1
v -0.6 0.2 0.1
v -0.6 0.3 0.1
v -0.5 0.2 -0.1
v -0.5 0.3 -0.1
v -0.1 0.2 -0.1
v -0.1 0.3 -0.1
v 0.1 0.2 -0.1
v 0.1 0.3 -0.1
v 0.2 0.2 -0.1
v 0.2 0.3 -0.1
v -0.6 0.2 -0.2
v -0.6 0.3 -0.2
v -0.5 0.2 -0.2
v -0.5 0.3 -0.2
v -0.1 0.2 -0.2
v -0.1 0.3 -0.2
v 0.1 0.2 -0.2
v 0.1 0.3 -0.2
v -0.7 0.2 -0.3
v -0.7 0.3 -0.3
v -0.6 0.2 -0.3
v -0.6 0.3 -0.3
v -0.7 0.2 0.2
v -0.6 0.2 0.2
v -0.7 0.2 0.1
v -0.6 0.2 0.1
v -0.5 0.2 0.1
v -0.1 0.2 0.1
v 0.1 0.2 0.1
v -0.6 0.2 0
v -0.5 0.2 0
v -0.1 0.2 0
v 0 0.2 0
v 0.1 0.2 0
v 0.2 0.2 0
v -0.6 0.2 -0.1
v -0.5 0.2 -0.1
v -0.1 0.2 -0.1
v 0 0.2 -0.1
v 0.1 0.2 -0.1
v 0.2 0.2 -0.1
v -0.7 0.2 -0.2
v -0.6 0.2 -0.2
v -0.5 0.2 -0.2
v -0.1 0.2 -0.2
v 0.1 0.2 -0.2
v -0.7 0.2 -0.3
v -0.6 0.2 -0.3
v -0.7 0.3 0.2
v -0.6 0.3 0.2
v -0.7 0.3 0.1
v -0.6 0.3 0.1
v -0.5 0.3 0.1
v -0.1 0.3 0.1
v 0.1 0.3 0.1
v -0.6 0.3 0
v -0.5 0.3 0
v -0.1 0.3 0
v 0 0.3 0
v 0.1 0.3 0
v 0.2 0.3 0
v -0.6 0.3 -0.1
v -0.5 0.3 -0.1
v -0.1 0.3 -0.1
v 0 0.3 -0.1
v 0.1 0.3 -0.1
v 0.2 0.3 -0.1
v -0.7 0.3 -0.2
v -0.6 0.3 -0.2
v -0.5 0.3 -0.2
v -0.1 0.3 -0.2
v 0.1 0.3 -0.2
v -0.7 0.3 -0.3
v -0.6 0.3 -0.3

# faces
f 5/2/1 2/2/1 1/2/1
f 6/2/1 2/2/1 5/2/1
f 7/2/1 4/2/1 3/2/1
f 8/2/1 4/2/1 7/2/1
f 13/2/1 10/2/1 9/2/1
f 14/1/1 11/1/1 10/1/1
f 14/2/1 10/2/1 13/2/1
f 15/2/1 12/2/1 11/2/1
f 15/1/1 11/1/1 14/1/1
f 16/2/1 12/2/1 15/2/1
f 21/3/1 18/3/1 17/3/1
f 22/3/1 18/3/1 21/3/1
f 23/3/1 20/3/1 19/3/1
f 24/3/1 20/3/1 23/3/1
f 25/2/2 26/2/2 29/2/2
f 29/2/2 26/2/2 30/2/2
f 27/2/2 28/2/2 31/2/2
f 31/2/2 28/2/2 32/2/2
f 33/2/2 34/2/2 37/2/2
f 37/2/2 34/2/2 38/2/2
f 35/2/2 36/2/2 39/2/2
f 39/2/2 36/2/2 40/2/2
f 41/3/2 42/3/2 45/3/2
f 45/3/2 42/3/2 46/3/2
f 43/3/2 44/3/2 47/3/2
f 47/3/2 44/3/2 48/3/2
f 49/3/2 50/3/2 51/3/2
f 51/3/2 50/3/2 52/3/2
f 55/2/3 54/2/3 53/2/3
f 56/2/3 54/2/3 55/2/3
f 59/2/3 58/2/3 57/2/3
f 60/2/3 58/2/3 59/2/3
f 63/3/3 62/3/3 61/3/3
f 64/3/3 62/3/3 63/3/3
f 67/1/3 66/1/3 65/1/3
f 68/1/3 66/1/3 67/1/3
f 71/3/3 70/3/3 69/3/3
f 72/3/3 70/3/3 71/3/3
f 75/2/3 74/2/3 73/2/3
f 76/2/3 74/2/3 75/2/3
f 77/2/4 78/2/4 79/2/4
f 79/2/4 78/2/4 80/2/4
f 81/1/4 82/1/4 83/1/4
f 83/1/4 82/1/4 84/1/4
f 85/3/4 86/3/4 87/3/4
f 87/3/4 86/3/4 88/3/4
f 89/2/4 90/2/4 91/2/4
f 91/2/4 90/2/4 92/2/4
f 93/3/4 94/3/4 95/3/4
f 95/3/4 94/3/4 96/3/4
f 97/2/4 98/2/4 99/2/4
f 99/2/4 98/2/4 100/2/4
f 103/2/5 102/2/5 101/2/5
f 104/2/5 102/2/5 103/2/5
f 108/2/5 105/2/5 104/2/5
f 109/2/5 105/2/5 108/2/5
f 110/3/5 107/3/5 106/3/5
f 111/3/5 107/3/5 110/3/5
f 112/3/5 107/3/5 111/3/5
f 114/1/5 109/1/5 108/1/5
f 114/1/5 110/1/5 109/1/5
f 114/1/5 111/1/5 110/1/5
f 115/1/5 111/1/5 114/1/5
f 116/1/5 111/1/5 115/1/5
f 117/3/5 113/3/5 112/3/5
f 117/1/5 111/1/5 116/1/5
f 117/3/5 112/3/5 111/3/5
f 118/3/5 113/3/5 117/3/5
f 119/3/5 113/3/5 118/3/5
f 121/2/5 115/2/5 114/2/5
f 122/2/5 115/2/5 121/2/5
f 123/3/5 118/3/5 117/3/5
f 123/3/5 117/3/5 116/3/5
f 124/3/5 118/3/5 123/3/5
f 125/2/5 121/2/5 120/2/5
f 126/2/5 121/2/5 125/2/5
f 127/2/6 128/2/6 129/2/6
f 129/2/6 128/2/6 130/2/6
f 130/2/6 131/2/6 134/2/6
f 134/2/6 131/2/6 135/2/6
f 132/3/6 133/3/6 136/3/6
f 136/3/6 133/3/6 137/3/6
f 137/3/6 133/3/6 138/3/6
f 134/1/6 135/1/6 140/1/6
f 135/1/6 136/1/6 140/1/6
f 136/1/6 137/1/6 140/1/6
f 140/1/6 137/1/6 141/1/6
f 141/1/6 137/1/6 142/1/6
f 138/3/6 139/3/6 143/3/6
f 142/1/6 137/1/6 143/1/6
f 137/3/6 138/3/6 143/3/6
f 143/3/6 139/3/6 144/3/6
f 144/3/6 139/3/6 145/3/6
f 140/2/6 141/2/6 147/2/6
f 147/2/6 141/2/6 148/2/6
f 143/3/6 144/3/6 149/3/6
f 142/3/6 143/3/6 149/3/6
f 149/3/6 144/3/6 150/3/6
f 146/2/6 147/2/6 151/2/6
f 151/2/6 147/2/6 152/2/6
